<svg xmlns="http://www.w3.org/2000/svg" xmlns:xlink="http://www.w3.org/1999/xlink" width="500" zoomAndPan="magnify" viewBox="0 0 375 374.999991" height="500" preserveAspectRatio="xMidYMid meet" version="1.0"><defs><g/><clipPath id="405ea5f731"><path d="M 7.828125 191 L 136.078125 191 L 136.078125 195 L 7.828125 195 Z M 7.828125 191 " clip-rule="nonzero"/></clipPath><clipPath id="6e1732679a"><path d="M 53 202 L 91 202 L 91 205.417969 L 53 205.417969 Z M 53 202 " clip-rule="nonzero"/></clipPath></defs><path fill="#000000" d="M 48 158.988281 L 48 181.527344 L 48.953125 181.527344 L 48.953125 171.871094 L 51.464844 169.195312 L 54.195312 169.976562 L 54.195312 180.722656 L 55.023438 180.960938 L 55.023438 167.6875 L 56.714844 166.644531 L 56.714844 160.996094 L 59.75 157.757812 L 62.550781 160.746094 L 62.550781 182.691406 L 63.53125 182.972656 L 63.53125 171.820312 L 64.40625 172.359375 L 64.40625 165.289062 L 65.863281 165.707031 L 65.863281 161.273438 L 67.636719 161.78125 L 70.316406 158.925781 L 70.316406 178.640625 L 70.933594 178.640625 L 70.933594 168.246094 L 74.257812 164.699219 L 74.257812 183.253906 L 74.789062 189.433594 L 74.789062 161.625 L 81.175781 168.4375 L 81.175781 175.59375 L 82.246094 175.59375 L 82.246094 164.859375 L 84.59375 163.414062 L 84.59375 158.957031 L 86.417969 157.007812 L 91.539062 162.472656 L 91.539062 180.992188 L 92.742188 180.992188 L 92.742188 175.054688 L 94.933594 172.71875 L 98.847656 173.835938 L 98.847656 162.9375 L 100.554688 161.886719 L 105.789062 165.109375 L 105.789062 179.988281 L 106.878906 179.988281 L 106.878906 164.296875 L 108.824219 163.101562 L 108.824219 156.910156 L 109.800781 157.949219 L 109.800781 165.09375 L 111.144531 165.925781 L 111.144531 179.613281 L 112.265625 179.613281 L 112.265625 166.679688 L 115.207031 164.105469 L 115.207031 183.066406 L 115.972656 183.066406 L 115.972656 172.390625 L 120.742188 175.21875 L 120.742188 191.191406 L 23.164062 191.191406 L 23.164062 173.242188 L 26.203125 171.367188 L 30.078125 175.5 L 30.078125 159.839844 L 32.171875 157.605469 L 35.539062 159.675781 L 35.539062 179.808594 L 36.28125 180.019531 L 36.28125 176.128906 L 37.339844 176.128906 L 37.339844 168.96875 L 38.988281 167.210938 L 38.988281 160.742188 L 43.332031 156.113281 Z M 48 158.988281 " fill-opacity="1" fill-rule="evenodd"/><path fill="#b7817c" d="M 85.863281 159.449219 C 78.214844 167.113281 65.691406 167.113281 58.042969 159.449219 C 50.390625 151.785156 50.390625 139.246094 58.042969 131.582031 C 65.691406 123.921875 78.214844 123.921875 85.863281 131.585938 C 93.515625 139.246094 93.515625 151.785156 85.863281 159.449219 M 93.242188 166.839844 L 71.953125 188.160156 L 50.664062 166.839844 C 38.957031 155.113281 38.957031 135.921875 50.664062 124.195312 C 62.375 112.46875 81.535156 112.46875 93.242188 124.195312 C 104.953125 135.921875 104.953125 155.109375 93.242188 166.839844 Z M 93.242188 166.839844 " fill-opacity="1" fill-rule="evenodd"/><g clip-path="url(#405ea5f731)"><path fill="#b7817c" d="M 23.164062 191.191406 L 120.742188 191.191406 C 129.179688 191.191406 136.078125 191.9375 136.078125 192.851562 C 136.078125 193.761719 129.179688 194.511719 120.742188 194.511719 L 23.164062 194.511719 C 14.726562 194.511719 7.828125 193.761719 7.828125 192.851562 C 7.828125 191.9375 14.726562 191.191406 23.164062 191.191406 " fill-opacity="1" fill-rule="evenodd"/></g><path fill="#b7817c" d="M 50.34375 196.621094 L 93.5625 196.621094 C 102 196.621094 108.898438 197.367188 108.898438 198.28125 C 108.898438 199.195312 102 199.941406 93.5625 199.941406 L 50.34375 199.941406 C 41.90625 199.941406 35.007812 199.195312 35.007812 198.28125 C 35.007812 197.367188 41.90625 196.621094 50.34375 196.621094 " fill-opacity="1" fill-rule="evenodd"/><g clip-path="url(#6e1732679a)"><path fill="#b7817c" d="M 68.464844 202.054688 L 75.441406 202.054688 C 83.878906 202.054688 90.773438 202.800781 90.773438 203.710938 C 90.773438 204.625 83.878906 205.371094 75.441406 205.371094 L 68.464844 205.371094 C 60.03125 205.371094 53.132812 204.625 53.132812 203.710938 C 53.132812 202.800781 60.03125 202.054688 68.464844 202.054688 " fill-opacity="1" fill-rule="evenodd"/></g><g fill="#000000" fill-opacity="1"><g transform="translate(141.087022, 190.201041)"><g><path d="M 2.203125 -24.351562 C 1.792969 -24.351562 1.554688 -24.128906 1.554688 -23.699219 L 1.554688 -19.546875 C 1.554688 -19.117188 1.792969 -18.898438 2.203125 -18.898438 L 11.636719 -18.898438 L 2.566406 -0.777344 C 2.332031 -0.316406 2.566406 0 3.058594 0 L 8.371094 0 C 8.734375 0 8.957031 -0.125 9.117188 -0.492188 L 19.800781 -23.605469 C 20.007812 -24.066406 19.800781 -24.351562 19.324219 -24.351562 Z M 2.203125 -24.351562 "/></g></g></g><g fill="#000000" fill-opacity="1"><g transform="translate(163.648522, 190.201041)"><g><path d="M 30.089844 -24.351562 C 29.773438 -24.351562 29.488281 -24.160156 29.34375 -23.828125 L 24.253906 -12.0625 L 19.023438 -24.160156 C 18.898438 -24.476562 18.644531 -24.667969 18.277344 -24.667969 C 17.882812 -24.667969 17.660156 -24.476562 17.535156 -24.160156 L 12.554688 -12.082031 L 7.46875 -23.828125 C 7.339844 -24.160156 7.039062 -24.351562 6.722656 -24.351562 L 1 -24.351562 C 0.523438 -24.351562 0.285156 -24.035156 0.523438 -23.574219 L 11.683594 0 C 12.175781 1 13.015625 1 13.445312 0 L 18.40625 -11.890625 L 23.382812 0 C 23.796875 1 24.636719 1 25.128906 0 L 36.304688 -23.574219 C 36.527344 -24.035156 36.242188 -24.351562 35.8125 -24.351562 Z M 30.089844 -24.351562 "/></g></g></g><g fill="#000000" fill-opacity="1"><g transform="translate(202.075937, 190.201041)"><g><path d="M 14.617188 0.648438 C 22.558594 0.648438 27.855469 -4.34375 27.855469 -12.175781 C 27.855469 -20.007812 22.558594 -25 14.617188 -25 C 6.691406 -25 1.425781 -20.007812 1.425781 -12.175781 C 1.425781 -4.34375 6.691406 0.648438 14.617188 0.648438 Z M 14.617188 -5.199219 C 10.589844 -5.199219 7.925781 -7.863281 7.925781 -12.175781 C 7.925781 -16.488281 10.589844 -19.152344 14.617188 -19.152344 C 18.675781 -19.152344 21.371094 -16.488281 21.371094 -12.175781 C 21.371094 -7.863281 18.675781 -5.199219 14.617188 -5.199219 Z M 14.617188 -5.199219 "/></g></g></g><g fill="#000000" fill-opacity="1"><g transform="translate(233.006271, 190.201041)"><g><path d="M 8.054688 0 C 8.480469 0 8.703125 -0.222656 8.703125 -0.648438 L 8.703125 -12.269531 L 22.179688 0 C 23.191406 0.933594 23.921875 0.523438 23.921875 -0.585938 L 23.921875 -23.699219 C 23.921875 -24.128906 23.699219 -24.351562 23.273438 -24.351562 L 18.308594 -24.351562 C 17.882812 -24.351562 17.660156 -24.128906 17.660156 -23.699219 L 17.660156 -12.492188 L 4.027344 -24.507812 C 3.125 -25.300781 2.441406 -24.90625 2.441406 -23.796875 L 2.441406 -0.648438 C 2.441406 -0.222656 2.664062 0 3.089844 0 Z M 8.054688 0 "/></g></g></g><g fill="#000000" fill-opacity="1"><g transform="translate(260.988492, 190.201041)"><g><path d="M 11.207031 0 C 20.449219 0 24.476562 -4.550781 24.476562 -12.144531 C 24.476562 -19.863281 20.324219 -24.351562 11.207031 -24.351562 L 3.058594 -24.351562 C 2.632812 -24.351562 2.410156 -24.128906 2.410156 -23.699219 L 2.410156 -0.648438 C 2.410156 -0.222656 2.632812 0 3.058594 0 Z M 8.957031 -18.832031 L 11.238281 -18.832031 C 15.804688 -18.832031 17.992188 -16.457031 17.992188 -12.238281 C 17.992188 -8.023438 15.804688 -5.515625 11.238281 -5.515625 L 8.957031 -5.515625 Z M 8.957031 -18.832031 "/></g></g></g><g fill="#000000" fill-opacity="1"><g transform="translate(288.574462, 190.201041)"><g><path d="M 18.214844 0 C 18.644531 0 18.867188 -0.222656 18.867188 -0.648438 L 18.867188 -4.867188 C 18.867188 -5.296875 18.644531 -5.515625 18.214844 -5.515625 L 8.894531 -5.515625 L 8.894531 -8.371094 L 16.945312 -8.371094 C 17.375 -8.371094 17.597656 -8.609375 17.597656 -9.019531 L 17.597656 -12.921875 C 17.597656 -13.347656 17.375 -13.570312 16.945312 -13.570312 L 8.894531 -13.570312 L 8.894531 -18.832031 L 18.214844 -18.832031 C 18.644531 -18.832031 18.867188 -19.054688 18.867188 -19.484375 L 18.867188 -23.699219 C 18.867188 -24.128906 18.644531 -24.351562 18.214844 -24.351562 L 3.058594 -24.351562 C 2.632812 -24.351562 2.410156 -24.128906 2.410156 -23.699219 L 2.410156 -0.648438 C 2.410156 -0.222656 2.632812 0 3.058594 0 Z M 18.214844 0 "/></g></g></g><g fill="#000000" fill-opacity="1"><g transform="translate(310.914061, 190.201041)"><g><path d="M 18.152344 -9.148438 C 20.546875 -10.398438 21.910156 -13 21.910156 -16.519531 C 21.910156 -20.6875 20.039062 -24.351562 13.175781 -24.351562 L 3.058594 -24.351562 C 2.632812 -24.351562 2.410156 -24.128906 2.410156 -23.699219 L 2.410156 -0.648438 C 2.410156 -0.222656 2.632812 0 3.058594 0 L 8.277344 0 C 8.703125 0 8.925781 -0.222656 8.925781 -0.648438 L 8.925781 -8.308594 L 11.667969 -8.308594 L 15.582031 -0.492188 C 15.742188 -0.160156 15.980469 0 16.328125 0 L 22.242188 0 C 22.734375 0 22.925781 -0.316406 22.703125 -0.777344 Z M 12.046875 -18.832031 C 13.347656 -18.832031 15.425781 -18.832031 15.425781 -16.457031 C 15.425781 -13.824219 12.953125 -13.824219 12.046875 -13.824219 L 8.925781 -13.824219 L 8.925781 -18.832031 Z M 12.046875 -18.832031 "/></g></g></g><g fill="#000000" fill-opacity="1"><g transform="translate(336.629734, 190.201041)"><g><path d="M 9.941406 0.648438 C 14.554688 0.648438 19.484375 -1.140625 19.484375 -6.816406 C 19.484375 -11.335938 16.328125 -13.285156 13.445312 -14.617188 C 10.558594 -15.949219 8.277344 -16.660156 8.277344 -18.121094 C 8.277344 -19.214844 9.351562 -19.578125 10.84375 -19.578125 C 12.300781 -19.578125 14.15625 -19.214844 15.742188 -18.675781 C 16.136719 -18.53125 16.425781 -18.707031 16.550781 -19.085938 L 17.722656 -23.082031 C 17.851562 -23.511719 17.722656 -23.765625 17.3125 -23.890625 C 15.09375 -24.574219 12.492188 -25 10.621094 -25 C 6.070312 -25 1.679688 -22.988281 1.679688 -17.660156 C 1.679688 -13.855469 4.121094 -11.953125 6.945312 -10.496094 C 9.796875 -9.019531 12.855469 -8.148438 12.855469 -6.53125 C 12.855469 -5.296875 11.652344 -4.835938 9.972656 -4.835938 C 8.210938 -4.835938 5.882812 -5.328125 3.804688 -6.007812 C 3.410156 -6.136719 3.125 -6.039062 2.980469 -5.613281 L 1.585938 -1.363281 C 1.457031 -0.933594 1.617188 -0.683594 2.046875 -0.554688 C 4.992188 0.285156 7.53125 0.648438 9.941406 0.648438 Z M 9.941406 0.648438 "/></g></g></g></svg>